<?xml version="1.0" encoding="UTF-8"?>
<svg id="_图层_1" data-name="图层_1" xmlns="http://www.w3.org/2000/svg" version="1.1" viewBox="0 0 700 700">
  <!-- Generator: Adobe Illustrator 29.0.0, SVG Export Plug-In . SVG Version: 2.1.0 Build 186)  -->
  <defs>
    <style>
      .st0 {
        fill: #004c60;
      }
    </style>
  </defs>
  <path class="st0" d="M680.2,145.8c-3.5-14.2-10.4-29.6-13-43.4-3.5-18.1,6.5-34.7-11.6-48.8-10.6-8.2-25.3-8.5-35.7.4-5.5,4.7-2.9,7-11.6,8.8-21.8,4.4-60.6,4.6-82.8,1.7-70.7-9.4-114.3-58.7-188.1-13.9-69.7,42.4-121.5,146.7-79.4,224.1,13.4,24.6,35.5,43,59.4,51.7v27.5c-81.2,9.8-158.1,94.2-178,170.7-6.2,24-9.5,77.8-26.1,94.7-18.6,18.9-50.9-12.8-61-28.4-23.6-36.3-8.7-83.4-4.1-123,.8-6.7,1.9-15.4,1.6-22,0-.9.5-2.2-.8-1.9-18.2,29.4-30.7,63.8-34.5,98.4-10.3,93.2,59.9,125.4,141.5,124.3,78.1-3,159.1,3.9,236.9,0,21.7-1.1,51.8-4.9,48.1-34.1-3.4-27.7-31.7-19.1-50.9-16.9,4.6-27.2,11.4-50.8-2-76.9-10.4-20.3-45.6-53.8-70.2-43.5-7,2.9-6.2,6-2.2,11.6,6.6,9.5,22.3,12.8,31.2,22.9,18.6,21.1,13.6,61-7.4,78.8-12.9,10.9-57.6,14.6-75.3,15.7-24.2,1.5-64.6,3-87.6-1.7-3.7-.7-6.5-1.2-7.9-4.7-9.6-24.1,2-73.2,10.4-97.5,21.5-62.1,68.2-123.7,133.9-142.1,7.5-2.1,24.7-3.8,29.9-7,3.2-2,8.9-10.2,6.1-13.4h0c-4.6-5.3-24.7-4.9-31.5-4.1,0,0-.1,0-.2,0v-27.5c37.2,13.5,78.5,3.2,97.4-44.7,6.7-16.9,21.2-68.1,3.5-80.3-2.8-1.9-9.2-4.2-12.2-2.1-7.3,5.3-8,38.6-9.9,48.1-11.2,55.7-66,50.9-96.2,12.7-66.5-83.8,23.5-220.3,125.6-200.9,14.8,2.8,29.6,8.7,44.5,15.2v26.3c0,0-.1,0-.2,0-30.7,3.2-26.2,50.1,4.5,48.4,30.9-1.7,29.5-51.8-4.2-48.4v-26.3c29.7,13,59.9,28.7,92.1,28.5l60.2.9c1.9.6,8.6,14.8,9.8,17.6,10.4,22.9,25.8,65.5,6,86.6-12.5,13.3-49.5,22.7-67.6,30.4-24.8,10.5-65.7,29.5-71.4,58.8-5.1,26,16.3,65.5,24.9,90.7,21.1,61.5,21,117.8,1.8,179.8-6.2,20-16,39-21.8,59-1.5,5.1-7.6,29.2-3,32.2,3.2,2.1,13.3,5,17.3,6,21.6,5.2,60.2,5,77.8-10.3,9.8-8.5,10.3-18.1,5.3-29.6-9-20.8-27.5-10.2-44.5-8.4h0c5.2-27.8,13.6-55.5,17.1-83.6,7.1-56.4-3.7-105.9-24.6-157.9-8.4-21-20.2-40.8-25.3-63,34.2-36.6,89.5-40.7,130.6-66.3,38.2-23.7,35-61.1,25.3-100Z"/>
</svg>